<?xml version="1.0" encoding="UTF-8" standalone="no"?>
<!-- Created with Inkscape (http://www.inkscape.org/) -->

<svg
   width="210mm"
   height="297mm"
   viewBox="0 0 210 297"
   version="1.1"
   id="svg5"
   xmlns="http://www.w3.org/2000/svg"
   xmlns:svg="http://www.w3.org/2000/svg">
  <defs
     id="defs2" />
  <g
     id="layer1">
    <text
       xml:space="preserve"
       style="font-style:normal;font-variant:normal;font-weight:bold;font-stretch:normal;font-size:10.5833px;line-height:1.25;font-family:'Anka/Coder';-inkscape-font-specification:'Anka/Coder, Bold';font-variant-ligatures:normal;font-variant-caps:normal;font-variant-numeric:normal;font-variant-east-asian:normal;letter-spacing:0px;word-spacing:0px;fill:#000000;fill-opacity:1;stroke:none;stroke-width:0.264583"
       x="91.957512"
       y="97.417297"
       id="text113"><tspan
         id="tspan111"
         style="font-style:normal;font-variant:normal;font-weight:bold;font-stretch:normal;font-size:10.5833px;font-family:'Anka/Coder';-inkscape-font-specification:'Anka/Coder, Bold';font-variant-ligatures:normal;font-variant-caps:normal;font-variant-numeric:normal;font-variant-east-asian:normal;stroke-width:0.264583"
         x="91.957512"
         y="97.417297">DataSocial</tspan></text>
    <path
       d="m 77.858185,92.129485 0.23001,0.401291 c 0.203093,0.354803 0.535873,0.61662 0.929825,0.729181 l 1.416759,0.403737 c 0.420867,0.119898 0.709603,0.504064 0.709603,0.94206 v 0.976314 c 0,0.269159 0.151708,0.513851 0.391505,0.633749 0.239797,0.119899 0.391505,0.36459 0.391505,0.63375 v 0.954293 c 0,0.381719 0.364589,0.658217 0.731625,0.553003 0.393952,-0.112557 0.699815,-0.428209 0.800138,-0.827054 l 0.06851,-0.274055 c 0.10277,-0.413529 0.37193,-0.768328 0.741413,-0.978764 l 0.198199,-0.112557 c 0.367037,-0.207988 0.592152,-0.59949 0.592152,-1.020361 v -0.203091 c 0,-0.31076 -0.124792,-0.609279 -0.345015,-0.829503 l -0.09543,-0.09543 c -0.220223,-0.220225 -0.518745,-0.345015 -0.829502,-0.345015 h -1.054617 c -0.271607,0 -0.540766,-0.07097 -0.778116,-0.205541 l -0.844183,-0.482039 c -0.105217,-0.06118 -0.185964,-0.159049 -0.225115,-0.274055 -0.0783,-0.234905 0.02692,-0.489381 0.249584,-0.599491 l 0.144367,-0.07341 c 0.161497,-0.08074 0.349908,-0.09543 0.521191,-0.03671 l 0.567683,0.188412 c 0.200646,0.06607 0.420869,-0.0098 0.535873,-0.18352 0.115004,-0.171282 0.10277,-0.398845 -0.02937,-0.557894 L 82.544,91.047948 c -0.244691,-0.293631 -0.242244,-0.721839 0.0073,-1.010574 l 0.384164,-0.447784 c 0.215328,-0.252033 0.249584,-0.611727 0.08564,-0.898016 l -0.05872,-0.102769 c -0.08564,-0.0049 -0.168837,-0.0073 -0.254479,-0.0073 -2.270729,0 -4.196444,1.490166 -4.849768,3.548017 z m 9.941783,1.541551 c 0,-0.900463 -0.234903,-1.747092 -0.645983,-2.48361 l -0.626408,0.252029 c -0.384164,0.154158 -0.582365,0.582366 -0.452678,0.97387 l 0.413528,1.240582 c 0.08564,0.254479 0.293629,0.447783 0.553,0.511405 l 0.712049,0.178624 c 0.02937,-0.220221 0.04404,-0.445338 0.04404,-0.6729 z m -11.353648,0 a 6.2640816,6.2640816 0 1 1 12.528163,0 6.2640816,6.2640816 0 1 1 -12.528163,0 z"
       id="path205"
       style="fill:#008080;stroke-width:0.0244691" />
  </g>
</svg>
